{"title":"War of the Worlds(2005)MPEG-4[DaScubaDude]","uid":14538011,"size":1158845178,"categoryP":"video","categoryS":"movies","magnet":"?xt=urn:btih:fa089cc431c5d365750bcc8bcacc1d369deeb23f&amp;dn=War+of+the+Worlds%282005%29MPEG-4%5BDaScubaDude%5D&amp;tr=udp%3A%2F%2Ftracker.leechers-paradise.org%3A6969&amp;tr=udp%3A%2F%2Fzer0day.ch%3A1337&amp;tr=udp%3A%2F%2Fopen.demonii.com%3A1337&amp;tr=udp%3A%2F%2Ftracker.coppersurfer.tk%3A6969&amp;tr=udp%3A%2F%2Fexodus.desync.com%3A6969","seeders":0,"leechers":0,"uploader":"dascuba","files":1,"time":1462500589,"description":"War of the Worlds (2005)\r\nPG-13 | 1h 56min | Adventure, Sci-Fi, Thriller | 29 June 2005 (USA)\r\nAs Earth is invaded by alien tripod fighting machines, one family fights for survival.\r\nDirector: Steven Spielberg\r\nWriters: Josh Friedman (screenplay), David Koepp (screenplay) | \r\nStars: Tom Cruise, Dakota Fanning, Tim Robbins \r\n\r\nGeneral\r\nComplete name                            : WaroftheWorldsWAR_OF_THE_WORLDS_Title2.mp4\r\nFormat                                   : MPEG-4\r\nFormat profile                           : Base Media\r\nCodec ID                                 : isom (isom/iso2/avc1/mp41)\r\nFile size                                : 1.08 GiB\r\nDuration                                 : 1h 56mn\r\nOverall bit rate                         : 1 327 Kbps\r\nMovie name                               : WAR_OF_THE_WORLDS\r\nGenre                                    : Science_Fiction\r\nWriting application                      : Lavf54.6.100\r\n\r\nVideo\r\nID                                       : 1\r\nFormat                                   : AVC\r\nFormat/Info                              : Advanced Video Codec\r\nFormat profile                           :   \r\nFormat settings, CABAC                   : No\r\nFormat settings, ReFrames                : 6 frames\r\nCodec ID                                 : avc1\r\nCodec ID/Info                            : Advanced Video Coding\r\nDuration                                 : 1h 56mn\r\nBit rate                                 : 1 192 Kbps\r\nWidth                                    : 720 pixels\r\nHeight                                   : 404 pixels\r\nDisplay aspect ratio                     : 16:9\r\nFrame rate mode                          : Constant\r\nFrame rate                               : 29.970 (30000/1001) fps\r\nColor space                              : YUV\r\nChroma subsampling                       : 4:2:0\r\nBit depth                                : 8 bits\r\nScan type                                : Progressive\r\nBits/(Pixel*Frame)                       : 0.137\r\nStream size                              : 993 MiB (90%)\r\n\r\nAudio\r\nID                                       : 2\r\nFormat                                   : AAC\r\nFormat/Info                              : Advanced Audio Codec\r\nFormat profile                           : LC\r\nCodec ID                                 : 40\r\nDuration                                 : 1h 56mn\r\nBit rate mode                            : Constant\r\nBit rate                                 : 128 Kbps\r\nChannel(s)                               : 2 channels\r\nChannel positions                        : Front: L R\r\nSampling rate                            : 44.1 KHz\r\nFrame rate                               : 43.066 fps (1024 spf)\r\nCompression mode                         : Lossy\r\nStream size                              : 106 MiB (10%)\r\nDefault                                  : Yes\r\nAlternate group                          : 1","torrent":{"xt":"urn:btih:fa089cc431c5d365750bcc8bcacc1d369deeb23f","amp;dn":"War+of+the+Worlds%282005%29MPEG-4%5BDaScubaDude%5D","amp;tr":["udp%3A%2F%2Ftracker.leechers-paradise.org%3A6969","udp%3A%2F%2Fzer0day.ch%3A1337","udp%3A%2F%2Fopen.demonii.com%3A1337","udp%3A%2F%2Ftracker.coppersurfer.tk%3A6969","udp%3A%2F%2Fexodus.desync.com%3A6969"],"infoHash":"fa089cc431c5d365750bcc8bcacc1d369deeb23f","infoHashBuffer":{"type":"Buffer","data":[250,8,156,196,49,197,211,101,117,11,204,139,202,204,29,54,157,238,178,63]},"announce":[],"urlList":[]}}